<svg width="1323" height="352" xmlns="http://www.w3.org/2000/svg" xmlns:xlink="http://www.w3.org/1999/xlink" overflow="hidden"><defs><clipPath id="clip0"><rect x="0" y="0" width="1323" height="352"/></clipPath></defs><g clip-path="url(#clip0)"><rect x="0" y="0" width="1323" height="352.456" fill="#FFFFFF"/><path d="M348 71.2281C348 57.328 359.254 46.0597 373.136 46.0597L916.864 46.0597C930.746 46.0597 942 57.328 942 71.2281L942 304.258C942 318.158 930.746 329.426 916.864 329.426L373.136 329.426C359.254 329.426 348 318.158 348 304.258Z" stroke="#FFC000" stroke-width="2.00025" stroke-miterlimit="8" fill="#FFFAEB" fill-rule="evenodd"/><path d="M91 190.747C91 185.493 95.0294 181.235 100 181.235 104.971 181.235 109 185.493 109 190.747 109 196 104.971 200.259 100 200.259 95.0294 200.259 91 196 91 190.747Z" stroke="#000000" stroke-width="2.00025" stroke-miterlimit="8" fill="#FFFFFF" fill-rule="evenodd"/><path d="M158 148.692C158 143.439 162.253 139.18 167.5 139.18 172.747 139.18 177 143.439 177 148.692 177 153.946 172.747 158.205 167.5 158.205 162.253 158.205 158 153.946 158 148.692Z" stroke="#000000" stroke-width="2.00025" stroke-miterlimit="8" fill="#FFFFFF" fill-rule="evenodd"/><path d="M233 97.1257C233 92.1487 237.029 88.114 242 88.114 246.971 88.114 251 92.1487 251 97.1257 251 102.103 246.971 106.137 242 106.137 237.029 106.137 233 102.103 233 97.1257Z" stroke="#000000" stroke-width="2.00025" stroke-miterlimit="8" fill="#FFFFFF" fill-rule="evenodd"/><path d="M180 201.761C180 196.508 184.253 192.249 189.5 192.249 194.747 192.249 199 196.508 199 201.761 199 207.015 194.747 211.274 189.5 211.274 184.253 211.274 180 207.015 180 201.761Z" stroke="#000000" stroke-width="2.00025" stroke-miterlimit="8" fill="#FFFFFF" fill-rule="evenodd"/><path d="M134 108.14C134 103.163 138.253 99.1283 143.5 99.1283 148.747 99.1283 153 103.163 153 108.14 153 113.117 148.747 117.152 143.5 117.152 138.253 117.152 134 113.117 134 108.14Z" stroke="#000000" stroke-width="2.00025" stroke-miterlimit="8" fill="#FFFFFF" fill-rule="evenodd"/><path d="M0 0 54.4886 28.7238" stroke="#000000" stroke-width="2.00025" stroke-miterlimit="8" fill="none" fill-rule="evenodd" transform="matrix(-1 0 0 1.0013 160.489 155.201)"/><path d="M0 0 36.8864 66.6751" stroke="#000000" stroke-width="2.00025" stroke-miterlimit="8" fill="none" fill-rule="evenodd" transform="matrix(-1 0 0 1.0013 136.886 115.149)"/><path d="M180.121 201.322 109 190.246" stroke="#000000" stroke-width="2.00025" stroke-miterlimit="8" fill="none" fill-rule="evenodd"/><path d="M0 0 45.8379 88.7452" stroke="#000000" stroke-width="2.00025" stroke-miterlimit="8" fill="none" fill-rule="evenodd" transform="matrix(-1 0 0 1.0013 241.838 106.137)"/><path d="M0 0 61.3557 38.6533" stroke="#000000" stroke-width="2.00025" stroke-miterlimit="8" fill="none" fill-rule="evenodd" transform="matrix(1 0 0 -1.0013 174 141.837)"/><path d="M0 0 80.073 11.0085" stroke="#000000" stroke-width="2.00025" stroke-miterlimit="8" fill="none" fill-rule="evenodd" transform="matrix(1 0 0 -1.0013 153 108.149)"/><path d="M57 244.817C57 239.563 61.2533 235.305 66.5 235.305 71.7467 235.305 76 239.563 76 244.817 76 250.07 71.7467 254.329 66.5 254.329 61.2533 254.329 57 250.07 57 244.817Z" stroke="#000000" stroke-width="2.00025" stroke-miterlimit="8" fill="#FFFFFF" fill-rule="evenodd"/><path d="M189.518 192.342 174 155.201" stroke="#000000" stroke-width="2.00025" stroke-miterlimit="8" fill="none" fill-rule="evenodd"/><path d="M0 0 20.3569 40.9639" stroke="#000000" stroke-width="2.00025" stroke-miterlimit="8" fill="none" fill-rule="evenodd" transform="matrix(1 0 0 -1.0013 73 238.272)"/><path d="M40 174.226 90.4436 190.254" stroke="#000000" stroke-width="2.00025" stroke-miterlimit="8" fill="none" fill-rule="evenodd"/><path d="M22 174.726C22 169.473 26.0295 165.214 31 165.214 35.9706 165.214 40 169.473 40 174.726 40 179.98 35.9706 184.239 31 184.239 26.0295 184.239 22 179.98 22 174.726Z" stroke="#000000" stroke-width="2.00025" stroke-miterlimit="8" fill="#FFFFFF" fill-rule="evenodd"/><path d="M31 184.238 59.9716 238.589" stroke="#000000" stroke-width="2.00025" stroke-miterlimit="8" fill="none" fill-rule="evenodd"/><path d="M94 74.0959C94 69.1189 98.0294 65.0843 103 65.0843 107.971 65.0843 112 69.1189 112 74.0959 112 79.0729 107.971 83.1076 103 83.1076 98.0294 83.1076 94 79.0729 94 74.0959Z" stroke="#000000" stroke-width="2.00025" stroke-miterlimit="8" fill="#FFFFFF" fill-rule="evenodd"/><path d="M110 81.105 137.163 101.906" stroke="#000000" stroke-width="2.00025" stroke-miterlimit="8" fill="none" fill-rule="evenodd"/><path d="M177 266.845C177 261.592 181.029 257.333 186 257.333 190.971 257.333 195 261.592 195 266.845 195 272.099 190.971 276.358 186 276.358 181.029 276.358 177 272.099 177 266.845Z" stroke="#000000" stroke-width="2.00025" stroke-miterlimit="8" fill="#FFFFFF" fill-rule="evenodd"/><path d="M0 0 3.22434 46.5351" stroke="#000000" stroke-width="2.00025" stroke-miterlimit="8" fill="none" fill-rule="evenodd" transform="matrix(1 0 0 -1.0013 186 257.869)"/><path d="M249 228.796C249 223.543 253.029 219.284 258 219.284 262.971 219.284 267 223.543 267 228.796 267 234.05 262.971 238.308 258 238.308 253.029 238.308 249 234.05 249 228.796Z" stroke="#000000" stroke-width="2.00025" stroke-miterlimit="8" fill="#FFFFFF" fill-rule="evenodd"/><path d="M251.694 221.716 199 201.261" stroke="#000000" stroke-width="2.00025" stroke-miterlimit="8" fill="none" fill-rule="evenodd"/><path d="M0 0 55.9183 31.4905" stroke="#000000" stroke-width="2.00025" stroke-miterlimit="8" fill="none" fill-rule="evenodd" transform="matrix(-1 0 0 1.0013 250.918 235.305)"/><path d="M0.137586 0.990617-2.1095 1.30271-1.8409 1.22602-4.08798 2.22473-3.91286 2.12464-6.09753 3.68511-5.97165 3.57847-6.38783 3.99466-7.80223 2.58027-7.32751 2.10555-4.993 0.438044-2.52438-0.659118-0.137586-0.990617ZM-10.1555 8.36819-12.016 11.2752-11.9767 11.2084-13.8493 14.7038-13.817 14.6377-14.0542 15.1715-15.8821 14.3592-15.6299 13.7917-13.7216 10.2296-11.8402 7.28994ZM-16.2829 20.6474-18.5925 27.2933-18.5651 27.2003-18.7922 28.1385-20.7363 27.6679-20.4978 26.6826-18.1723 19.9908ZM-20.2038 33.9708-20.937 37.0001-20.919 36.9063-21.6098 41.7414-23.5899 41.4585-22.8924 36.576-22.1479 33.5003ZM-22.4235 47.5946-22.8367 55.585-24.8343 55.4816-24.421 47.4913ZM-22.7732 61.4672-22.3463 68.8529-22.3573 68.752-22.2616 69.3472-24.2365 69.6646-24.3403 69.0191-24.7701 61.5826ZM-21.3094 75.272-20.672 79.2384-20.6944 79.1344-19.6483 82.9783-21.5783 83.5036-22.6384 79.6083-23.2843 75.5894ZM-18.0725 88.7685-18.0104 88.9966-18.0468 88.8878-15.1631 96.0971-17.0203 96.8399-19.9253 89.5774-20.0025 89.2938ZM-12.6167 101.426-12.5908 101.477-12.6276 101.411-10.5054 104.907-10.5486 104.841-8.30155 107.962-8.37154 107.876-8.3656 107.882-9.84889 109.224-9.89224 109.176-12.1948 105.978-14.3571 102.417-14.4001 102.332ZM-4.21902 112.04-3.6497 112.537-3.94291 112.359-2.62716 112.873-3.35517 114.736-4.83298 114.159-5.53346 113.548ZM-2.82427 109.591 3.24579 116.162-5.65283 117.076Z" fill="#70AD47" transform="matrix(1 -1.22623e-16 -1.22465e-16 -1.0013 91 190.385)"/><path d="M0.0698379-0.997685 6.38025-0.555956 8.15405-0.183457 7.74297 1.7741 6.03636 1.41571 6.17207 1.43462-0.0698379 0.997685ZM14.0996 1.24103 18.9129 2.87853 21.6541 4.16345 20.8051 5.97459 18.114 4.71314 18.2163 4.7544 13.4554 3.13469ZM27.0623 6.98657 30.8323 9.28134 33.7873 11.4727 32.5959 13.0794 29.6775 10.9152 29.7532 10.9662 26.0223 8.69518ZM38.5156 15.3117 41.7078 18.1962 44.3097 20.9298 42.8608 22.3089 40.2849 19.6025 40.3388 19.655 37.1745 16.7958ZM48.336 25.4873 51.242 29.1197 53.1534 31.9721 51.4917 33.0856 49.6038 30.2682 49.6536 30.3363 46.7741 26.7368ZM56.3912 37.1148 58.9442 41.6834 60.113 44.2887 58.288 45.1074 57.1372 42.5422 57.1767 42.6208 54.6451 38.0906ZM62.4871 49.8839 64.4378 55.3858 64.9979 57.5682 63.0604 58.0654 62.5115 55.9264 62.5376 56.012 60.6019 50.5523ZM66.4103 63.5093 67.3686 70.2928 65.388 70.5726 64.4297 63.7891ZM70.2892 68.8556 66.7884 77.0876 62.3033 69.3478Z" fill="#70AD47" transform="matrix(1.83697e-16 1.0013 1 -1.83935e-16 99.9999 200.259)"/><path d="M99.0004 180.882 99.273 172.876 101.272 172.944 100.999 180.951ZM99.6875 166.816 100.507 158.842 100.518 158.778 102.488 159.122 102.483 159.151 102.493 159.081 101.677 167.021ZM101.549 152.858 102.39 148.03 103.105 144.946 105.053 145.399 104.345 148.455 104.356 148.401 103.519 153.203ZM104.462 139.094 104.838 137.47 106.692 131.334 108.606 131.914 106.762 138.019 106.779 137.955 106.41 139.546ZM108.555 125.56 111.344 118.051 113.219 118.749 110.43 126.258ZM113.791 112.493 115.705 108.225 117.302 105.224 119.067 106.166 117.486 109.137 117.516 109.077 115.616 113.314ZM120.124 99.9216 120.294 99.601 124.404 93.0682 126.097 94.1357 122.006 100.638 122.043 100.575 121.889 100.863ZM127.926 88.1111 130.683 84.4081 132.993 81.8092 134.487 83.1407 132.206 85.7072 132.261 85.6401 129.529 89.3083ZM137.142 77.326 142.254 72.6969 143.253 71.9858 144.412 73.6179 143.462 74.295 143.553 74.2217 138.483 78.8116ZM148.143 68.503 148.415 68.309 154.736 65.0485 155.571 64.7892 156.164 66.7022 155.412 66.9355 155.574 66.8692 149.395 70.0567 149.516 69.9825 149.302 70.1351ZM161.502 63.0187 167.696 62.3499 169.622 62.4454 169.523 64.4458 167.675 64.3542 167.832 64.3496 161.716 65.01ZM175.615 62.7425 180.426 62.9809 183.667 63.428 183.394 65.4121 180.197 64.971 180.284 64.9792 175.516 64.7429ZM189.612 64.2479 192.748 64.6805 197.547 65.7834 197.1 67.7355 192.344 66.6425 192.431 66.6585 189.339 66.232ZM203.396 67.1275 204.249 67.3234 209.615 68.9669 211.155 69.5331 210.466 71.4133 208.951 70.8565 209.003 70.8741 203.698 69.2491 203.766 69.2675 202.949 69.0796ZM216.791 71.7315 219.208 72.7592 223.391 74.9166 224.086 75.3365 223.052 77.0513 222.386 76.6489 222.445 76.6817 218.325 74.5567 218.393 74.5882 216.01 73.575ZM229.161 78.7186 230.235 79.5303 232.842 82.0735 233.562 83.5796 231.757 84.4443 231.114 83.0988 231.318 83.3837 228.884 81.0087 228.979 81.0906 227.956 80.3169ZM235.764 81.1549 235.387 90.104 228.463 84.4322Z" fill="#70AD47"/><path d="M0.12405-0.992403 1.76488-0.787299 3.41426-0.0701775 5.0596 1.02671 6.61627 2.51571 7.35231 3.48665 5.7583 4.69502 5.07039 3.78755 5.17608 3.90611 3.74044 2.53289 3.87698 2.64231 2.37893 1.6436 2.53492 1.72863 1.09928 1.10444 1.37401 1.17966-0.12405 0.992403ZM10.7685 8.58387 12.5133 11.802 14.2245 15.9009 12.3787 16.6715 10.687 12.6194 10.7307 12.7108 9.01011 9.53724ZM16.3545 21.576 17.8704 25.9794 18.7951 29.2514 16.8702 29.7954 15.9531 26.5504 15.9699 26.604 14.4631 22.2272ZM20.4211 35.067 22.3018 42.8438 20.3576 43.314 18.4769 35.5372ZM23.5567 48.7484 24.7645 54.6808 25.1034 56.6268 23.1329 56.97 22.7964 55.038 22.8016 55.0659 21.5967 49.1475ZM26.133 62.5386 26.7046 65.8204 27.3693 70.4735 25.3892 70.7564 24.7266 66.1184 24.7314 66.1486 24.1624 62.8818ZM28.2179 76.414 28.3938 77.6451 29.1843 84.3813 27.1977 84.6145 26.4087 77.8907 26.4119 77.9156 26.2378 76.6969ZM29.8736 90.3712 30.5769 98.3412 28.5844 98.517 27.8811 90.547ZM31.0636 104.347 31.5627 112.333 29.5663 112.458 29.0672 104.472ZM31.8475 118.36 32.0734 126.358 30.0739 126.415 29.8481 118.417ZM32.2427 132.356 32.3332 135.56 30.3337 135.616 30.2433 132.413ZM35.2947 134.142 31.5216 142.253 27.2969 134.368Z" fill="#70AD47" transform="matrix(1.83697e-16 1.0013 1 -1.83935e-16 106 197.255)"/><text font-family="Calibri,Calibri_MSFontService,sans-serif" font-weight="400" font-size="24" transform="matrix(1 0 0 1.0013 72.1077 312)">Link Prediction</text><path d="M442 190.747C442 185.493 446.253 181.235 451.5 181.235 456.747 181.235 461 185.493 461 190.747 461 196 456.747 200.259 451.5 200.259 446.253 200.259 442 196 442 190.747Z" stroke="#000000" stroke-width="2.00025" stroke-miterlimit="8" fill="#8FAADC" fill-rule="evenodd"/><path d="M510 148.692C510 143.439 514.029 139.18 519 139.18 523.971 139.18 528 143.439 528 148.692 528 153.946 523.971 158.205 519 158.205 514.029 158.205 510 153.946 510 148.692Z" stroke="#000000" stroke-width="2.00025" stroke-miterlimit="8" fill="#FFFFFF" fill-rule="evenodd"/><path d="M584 97.1257C584 92.1487 588.029 88.114 593 88.114 597.971 88.114 602 92.1487 602 97.1257 602 102.103 597.971 106.137 593 106.137 588.029 106.137 584 102.103 584 97.1257Z" stroke="#000000" stroke-width="2.00025" stroke-miterlimit="8" fill="#FFFFFF" fill-rule="evenodd"/><path d="M532 201.761C532 196.508 536.029 192.249 541 192.249 545.971 192.249 550 196.508 550 201.761 550 207.015 545.971 211.274 541 211.274 536.029 211.274 532 207.015 532 201.761Z" stroke="#000000" stroke-width="2.00025" stroke-miterlimit="8" fill="#FFFFFF" fill-rule="evenodd"/><path d="M486 108.14C486 103.163 490.029 99.1283 495 99.1283 499.971 99.1283 504 103.163 504 108.14 504 113.117 499.971 117.152 495 117.152 490.029 117.152 486 113.117 486 108.14Z" stroke="#000000" stroke-width="2.00025" stroke-miterlimit="8" fill="#FFFFFF" fill-rule="evenodd"/><path d="M0 0 54.4886 28.7238" stroke="#000000" stroke-width="2.00025" stroke-miterlimit="8" fill="none" fill-rule="evenodd" transform="matrix(-1 0 0 1.0013 512.489 155.201)"/><path d="M0 0 36.8864 66.6751" stroke="#000000" stroke-width="2.00025" stroke-miterlimit="8" fill="none" fill-rule="evenodd" transform="matrix(-1 0 0 1.0013 487.886 115.149)"/><path d="M532.122 201.322 461 190.246" stroke="#000000" stroke-width="2.00025" stroke-miterlimit="8" fill="none" fill-rule="evenodd"/><path d="M0 0 45.8379 88.7452" stroke="#000000" stroke-width="2.00025" stroke-miterlimit="8" fill="none" fill-rule="evenodd" transform="matrix(-1 0 0 1.0013 592.838 106.137)"/><path d="M0 0 61.3557 38.6533" stroke="#000000" stroke-width="2.00025" stroke-miterlimit="8" fill="none" fill-rule="evenodd" transform="matrix(1 0 0 -1.0013 525 141.837)"/><path d="M0 0 80.073 11.0085" stroke="#000000" stroke-width="2.00025" stroke-miterlimit="8" fill="none" fill-rule="evenodd" transform="matrix(1 0 0 -1.0013 504 108.149)"/><path d="M409 244.817C409 239.563 413.029 235.305 418 235.305 422.971 235.305 427 239.563 427 244.817 427 250.07 422.971 254.329 418 254.329 413.029 254.329 409 250.07 409 244.817Z" stroke="#000000" stroke-width="2.00025" stroke-miterlimit="8" fill="#FFFFFF" fill-rule="evenodd"/><path d="M540.518 192.342 525 155.201" stroke="#000000" stroke-width="2.00025" stroke-miterlimit="8" fill="none" fill-rule="evenodd"/><path d="M0 0 20.3569 40.9639" stroke="#000000" stroke-width="2.00025" stroke-miterlimit="8" fill="none" fill-rule="evenodd" transform="matrix(1 0 0 -1.0013 425 238.272)"/><path d="M392 174.226 442.444 190.254" stroke="#000000" stroke-width="2.00025" stroke-miterlimit="8" fill="none" fill-rule="evenodd"/><path d="M373 174.726C373 169.473 377.253 165.214 382.5 165.214 387.747 165.214 392 169.473 392 174.726 392 179.98 387.747 184.239 382.5 184.239 377.253 184.239 373 179.98 373 174.726Z" stroke="#000000" stroke-width="2.00025" stroke-miterlimit="8" fill="#FFFFFF" fill-rule="evenodd"/><path d="M383 184.238 411.972 238.589" stroke="#000000" stroke-width="2.00025" stroke-miterlimit="8" fill="none" fill-rule="evenodd"/><path d="M445 74.0959C445 69.1189 449.253 65.0843 454.5 65.0843 459.747 65.0843 464 69.1189 464 74.0959 464 79.0729 459.747 83.1076 454.5 83.1076 449.253 83.1076 445 79.0729 445 74.0959Z" stroke="#000000" stroke-width="2.00025" stroke-miterlimit="8" fill="#FFFFFF" fill-rule="evenodd"/><path d="M461 81.105 488.163 101.906" stroke="#000000" stroke-width="2.00025" stroke-miterlimit="8" fill="none" fill-rule="evenodd"/><path d="M529 266.845C529 261.592 533.029 257.333 538 257.333 542.971 257.333 547 261.592 547 266.845 547 272.099 542.971 276.358 538 276.358 533.029 276.358 529 272.099 529 266.845Z" stroke="#000000" stroke-width="2.00025" stroke-miterlimit="8" fill="#FFFFFF" fill-rule="evenodd"/><path d="M0 0 3.22434 46.5351" stroke="#000000" stroke-width="2.00025" stroke-miterlimit="8" fill="none" fill-rule="evenodd" transform="matrix(1 0 0 -1.0013 538 257.869)"/><path d="M600 228.796C600 223.543 604.253 219.284 609.5 219.284 614.747 219.284 619 223.543 619 228.796 619 234.05 614.747 238.308 609.5 238.308 604.253 238.308 600 234.05 600 228.796Z" stroke="#000000" stroke-width="2.00025" stroke-miterlimit="8" fill="#FFFFFF" fill-rule="evenodd"/><path d="M602.694 221.716 550 201.261" stroke="#000000" stroke-width="2.00025" stroke-miterlimit="8" fill="none" fill-rule="evenodd"/><path d="M0 0 55.9183 31.4905" stroke="#000000" stroke-width="2.00025" stroke-miterlimit="8" fill="none" fill-rule="evenodd" transform="matrix(-1 0 0 1.0013 602.918 235.305)"/><text font-family="Calibri,Calibri_MSFontService,sans-serif" font-weight="400" font-size="24" transform="matrix(1 0 0 1.0013 397.58 312)">Boundary Condition</text><path d="M737 189.746C737 184.492 741.253 180.233 746.5 180.233 751.747 180.233 756 184.492 756 189.746 756 194.999 751.747 199.258 746.5 199.258 741.253 199.258 737 194.999 737 189.746Z" stroke="#000000" stroke-width="2.00025" stroke-miterlimit="8" fill="#8FAADC" fill-rule="evenodd"/><path d="M805 148.192C805 143.215 809.029 139.18 814 139.18 818.971 139.18 823 143.215 823 148.192 823 153.169 818.971 157.204 814 157.204 809.029 157.204 805 153.169 805 148.192Z" stroke="#000000" stroke-width="2.00025" stroke-miterlimit="8" fill="#DAE3F3" fill-rule="evenodd"/><path d="M879 96.1245C879 91.1475 883.253 87.1128 888.5 87.1128 893.747 87.1128 898 91.1475 898 96.1245 898 101.101 893.747 105.136 888.5 105.136 883.253 105.136 879 101.101 879 96.1245Z" stroke="#000000" stroke-width="2.00025" stroke-miterlimit="8" fill="#A9D18E" fill-rule="evenodd"/><path d="M827 200.76C827 195.506 831.029 191.248 836 191.248 840.971 191.248 845 195.506 845 200.76 845 206.013 840.971 210.272 836 210.272 831.029 210.272 827 206.013 827 200.76Z" stroke="#000000" stroke-width="2.00025" stroke-miterlimit="8" fill="#DAE3F3" fill-rule="evenodd"/><path d="M781 107.139C781 102.162 785.029 98.127 790 98.127 794.971 98.127 799 102.162 799 107.139 799 112.116 794.971 116.15 790 116.15 785.029 116.15 781 112.116 781 107.139Z" stroke="#000000" stroke-width="2.00025" stroke-miterlimit="8" fill="#DAE3F3" fill-rule="evenodd"/><path d="M0 0 54.4886 28.7238" stroke="#000000" stroke-width="2.00025" stroke-miterlimit="8" fill="none" fill-rule="evenodd" transform="matrix(-1 0 0 1.0013 807.489 154.2)"/><path d="M0 0 36.8864 66.6751" stroke="#000000" stroke-width="2.00025" stroke-miterlimit="8" fill="none" fill-rule="evenodd" transform="matrix(-1 0 0 1.0013 782.886 114.148)"/><path d="M827.122 201.322 756 190.246" stroke="#000000" stroke-width="2.00025" stroke-miterlimit="8" fill="none" fill-rule="evenodd"/><path d="M0 0 45.8379 88.7452" stroke="#000000" stroke-width="2.00025" stroke-miterlimit="8" fill="none" fill-rule="evenodd" transform="matrix(-1 0 0 1.0013 887.838 105.136)"/><path d="M0 0 61.3557 38.6533" stroke="#000000" stroke-width="2.00025" stroke-miterlimit="8" fill="none" fill-rule="evenodd" transform="matrix(1 0 0 -1.0013 820 141.837)"/><path d="M0 0 80.073 11.0085" stroke="#000000" stroke-width="2.00025" stroke-miterlimit="8" fill="none" fill-rule="evenodd" transform="matrix(1 0 0 -1.0013 799 107.147)"/><path d="M704 243.816C704 238.562 708.029 234.303 713 234.303 717.971 234.303 722 238.562 722 243.816 722 249.069 717.971 253.328 713 253.328 708.029 253.328 704 249.069 704 243.816Z" stroke="#000000" stroke-width="2.00025" stroke-miterlimit="8" fill="#DAE3F3" fill-rule="evenodd"/><path d="M835.518 191.341 820 154.2" stroke="#000000" stroke-width="2.00025" stroke-miterlimit="8" fill="none" fill-rule="evenodd"/><path d="M0 0 20.3569 40.9639" stroke="#000000" stroke-width="2.00025" stroke-miterlimit="8" fill="none" fill-rule="evenodd" transform="matrix(1 0 0 -1.0013 720 237.271)"/><path d="M687 174.226 737.444 190.254" stroke="#000000" stroke-width="2.00025" stroke-miterlimit="8" fill="none" fill-rule="evenodd"/><path d="M668 173.725C668 168.471 672.253 164.213 677.5 164.213 682.747 164.213 687 168.471 687 173.725 687 178.978 682.747 183.237 677.5 183.237 672.253 183.237 668 178.978 668 173.725Z" stroke="#000000" stroke-width="2.00025" stroke-miterlimit="8" fill="#DAE3F3" fill-rule="evenodd"/><path d="M678 183.237 706.972 237.587" stroke="#000000" stroke-width="2.00025" stroke-miterlimit="8" fill="none" fill-rule="evenodd"/><path d="M741 73.5952C741 68.3417 745.029 64.0829 750 64.0829 754.971 64.0829 759 68.3417 759 73.5952 759 78.8487 754.971 83.1076 750 83.1076 745.029 83.1076 741 78.8487 741 73.5952Z" stroke="#000000" stroke-width="2.00025" stroke-miterlimit="8" fill="#FFF2CC" fill-rule="evenodd"/><path d="M756 80.1037 783.163 100.905" stroke="#000000" stroke-width="2.00025" stroke-miterlimit="8" fill="none" fill-rule="evenodd"/><path d="M824 265.844C824 260.591 828.029 256.332 833 256.332 837.971 256.332 842 260.591 842 265.844 842 271.098 837.971 275.356 833 275.356 828.029 275.356 824 271.098 824 265.844Z" stroke="#000000" stroke-width="2.00025" stroke-miterlimit="8" fill="#FFF2CC" fill-rule="evenodd"/><path d="M0 0 3.22434 46.5351" stroke="#000000" stroke-width="2.00025" stroke-miterlimit="8" fill="none" fill-rule="evenodd" transform="matrix(1 0 0 -1.0013 833 256.868)"/><path d="M895 227.795C895 222.541 899.253 218.283 904.5 218.283 909.747 218.283 914 222.541 914 227.795 914 233.048 909.747 237.307 904.5 237.307 899.253 237.307 895 233.048 895 227.795Z" stroke="#000000" stroke-width="2.00025" stroke-miterlimit="8" fill="#FFD966" fill-rule="evenodd"/><path d="M897.694 221.716 845 201.261" stroke="#000000" stroke-width="2.00025" stroke-miterlimit="8" fill="none" fill-rule="evenodd"/><path d="M0 0 55.9183 31.4905" stroke="#000000" stroke-width="2.00025" stroke-miterlimit="8" fill="none" fill-rule="evenodd" transform="matrix(-1 0 0 1.0013 897.918 234.303)"/><text font-family="Calibri,Calibri_MSFontService,sans-serif" font-weight="400" font-size="24" transform="matrix(1 0 0 1.0013 680.667 312)">Bellman<tspan font-size="24" x="79.3433" y="0">-</tspan><tspan font-size="24" x="86.6776" y="0">Ford </tspan><tspan font-size="24" x="136.197" y="0">I</tspan><tspan font-size="24" x="142.198" y="0">teration</tspan><tspan fill="#70AD47" font-size="32" x="-539.624" y="-266.654">?</tspan></text><path d="M1111 180.882 1111.38 169.848 1112.51 158.842 1114.39 148.03 1116.84 137.47 1119.92 127.284 1123.56 117.474 1127.7 108.225 1132.29 99.601 1137.33 91.5994 1142.68 84.4081 1148.3 78.0851 1154.25 72.6969 1160.42 68.309 1166.74 65.0485 1173.15 63.0562 1179.7 62.3499 1192.43 62.9809 1204.75 64.6805 1216.25 67.3234 1221.61 68.9669 1226.59 70.7975 1231.21 72.7592 1235.39 74.9166 1239.08 77.1484 1242.23 79.5303 1244.84 82.0735 1245.56 83.5796 1243.76 84.4443 1243.11 83.0988 1243.32 83.3837 1240.88 81.0087 1240.98 81.0906 1237.92 78.7781 1238.01 78.8364 1234.39 76.6489 1234.45 76.6817 1230.33 74.5567 1230.39 74.5882 1225.84 72.6507 1225.88 72.669 1220.95 70.8565 1221 70.8741 1215.7 69.2491 1215.77 69.2675 1204.34 66.6425 1204.43 66.6585 1192.2 64.971 1192.28 64.9792 1179.68 64.3542 1179.83 64.3496 1173.47 65.0371 1173.65 64.998 1167.41 66.9355 1167.57 66.8692 1161.39 70.0567 1161.52 69.9825 1155.46 74.295 1155.55 74.2217 1149.69 79.5342 1149.76 79.4572 1144.21 85.7072 1144.26 85.6401 1138.96 92.7651 1139 92.7002 1134.01 100.638 1134.04 100.575 1129.49 109.137 1129.52 109.077 1125.4 118.264 1125.42 118.203 1121.8 127.953 1121.82 127.894 1118.76 138.019 1118.78 137.955 1116.34 148.455 1116.36 148.401 1114.48 159.151 1114.49 159.081 1113.37 170.019 1113.37 169.951 1113 180.951ZM1247.76 81.1549 1247.39 90.104 1240.46 84.4322Z" fill="#70AD47"/><path d="M1102 190.747C1102 185.493 1106.25 181.235 1111.5 181.235 1116.75 181.235 1121 185.493 1121 190.747 1121 196 1116.75 200.259 1111.5 200.259 1106.25 200.259 1102 196 1102 190.747Z" stroke="#000000" stroke-width="2.00025" stroke-miterlimit="8" fill="none" fill-rule="evenodd"/><path d="M1170 148.692C1170 143.439 1174.03 139.18 1179 139.18 1183.97 139.18 1188 143.439 1188 148.692 1188 153.946 1183.97 158.205 1179 158.205 1174.03 158.205 1170 153.946 1170 148.692Z" stroke="#000000" stroke-width="2.00025" stroke-miterlimit="8" fill="none" fill-rule="evenodd"/><path d="M1244 97.1257C1244 92.1487 1248.25 88.114 1253.5 88.114 1258.75 88.114 1263 92.1487 1263 97.1257 1263 102.103 1258.75 106.137 1253.5 106.137 1248.25 106.137 1244 102.103 1244 97.1257Z" stroke="#000000" stroke-width="2.00025" stroke-miterlimit="8" fill="none" fill-rule="evenodd"/><path d="M1192 201.761C1192 196.508 1196.03 192.249 1201 192.249 1205.97 192.249 1210 196.508 1210 201.761 1210 207.015 1205.97 211.274 1201 211.274 1196.03 211.274 1192 207.015 1192 201.761Z" stroke="#000000" stroke-width="2.00025" stroke-miterlimit="8" fill="none" fill-rule="evenodd"/><path d="M1146 108.14C1146 103.163 1150.03 99.1283 1155 99.1283 1159.97 99.1283 1164 103.163 1164 108.14 1164 113.117 1159.97 117.152 1155 117.152 1150.03 117.152 1146 113.117 1146 108.14Z" stroke="#000000" stroke-width="2.00025" stroke-miterlimit="8" fill="none" fill-rule="evenodd"/><path d="M0 0 54.4886 28.7238" stroke="#000000" stroke-width="2.00025" stroke-miterlimit="8" fill="none" fill-rule="evenodd" transform="matrix(-1 0 0 1.0013 1172.49 155.201)"/><path d="M0 0 36.8864 66.6751" stroke="#4472C4" stroke-width="6.00076" stroke-miterlimit="8" fill="none" fill-rule="evenodd" transform="matrix(-1 0 0 1.0013 1148.89 115.149)"/><path d="M1192.12 201.322 1121 190.246" stroke="#4472C4" stroke-width="4.0005" stroke-miterlimit="8" fill="none" fill-rule="evenodd"/><path d="M0 0 45.8379 88.7452" stroke="#000000" stroke-width="2.00025" stroke-miterlimit="8" fill="none" fill-rule="evenodd" transform="matrix(-1 0 0 1.0013 1253.84 106.137)"/><path d="M0 0 61.3557 38.6533" stroke="#4472C4" stroke-width="4.0005" stroke-miterlimit="8" fill="none" fill-rule="evenodd" transform="matrix(1 0 0 -1.0013 1186 141.837)"/><path d="M0 0 80.073 11.0085" stroke="#4472C4" stroke-width="6.00076" stroke-miterlimit="8" fill="none" fill-rule="evenodd" transform="matrix(1 0 0 -1.0013 1164 108.149)"/><path d="M1069 244.817C1069 239.563 1073.03 235.305 1078 235.305 1082.97 235.305 1087 239.563 1087 244.817 1087 250.07 1082.97 254.329 1078 254.329 1073.03 254.329 1069 250.07 1069 244.817Z" stroke="#000000" stroke-width="2.00025" stroke-miterlimit="8" fill="none" fill-rule="evenodd"/><path d="M1201.52 192.342 1186 155.201" stroke="#4472C4" stroke-width="4.0005" stroke-miterlimit="8" fill="none" fill-rule="evenodd"/><path d="M0 0 20.3569 40.9639" stroke="#000000" stroke-width="2.00025" stroke-miterlimit="8" fill="none" fill-rule="evenodd" transform="matrix(1 0 0 -1.0013 1085 238.272)"/><path d="M1052 174.226 1102.44 190.254" stroke="#000000" stroke-width="2.00025" stroke-miterlimit="8" fill="none" fill-rule="evenodd"/><path d="M1034 174.726C1034 169.473 1038.03 165.214 1043 165.214 1047.97 165.214 1052 169.473 1052 174.726 1052 179.98 1047.97 184.239 1043 184.239 1038.03 184.239 1034 179.98 1034 174.726Z" stroke="#000000" stroke-width="2.00025" stroke-miterlimit="8" fill="none" fill-rule="evenodd"/><path d="M1043 184.238 1071.97 238.589" stroke="#000000" stroke-width="2.00025" stroke-miterlimit="8" fill="none" fill-rule="evenodd"/><path d="M1106 74.0959C1106 69.1189 1110.03 65.0843 1115 65.0843 1119.97 65.0843 1124 69.1189 1124 74.0959 1124 79.0729 1119.97 83.1076 1115 83.1076 1110.03 83.1076 1106 79.0729 1106 74.0959Z" stroke="#000000" stroke-width="2.00025" stroke-miterlimit="8" fill="none" fill-rule="evenodd"/><path d="M1121 81.105 1148.16 101.906" stroke="#000000" stroke-width="2.00025" stroke-miterlimit="8" fill="none" fill-rule="evenodd"/><path d="M1189 266.845C1189 261.592 1193.03 257.333 1198 257.333 1202.97 257.333 1207 261.592 1207 266.845 1207 272.099 1202.97 276.358 1198 276.358 1193.03 276.358 1189 272.099 1189 266.845Z" stroke="#000000" stroke-width="2.00025" stroke-miterlimit="8" fill="none" fill-rule="evenodd"/><path d="M0 0 3.22434 46.5351" stroke="#000000" stroke-width="2.00025" stroke-miterlimit="8" fill="none" fill-rule="evenodd" transform="matrix(1 0 0 -1.0013 1198 257.869)"/><path d="M1260 228.796C1260 223.543 1264.25 219.284 1269.5 219.284 1274.75 219.284 1279 223.543 1279 228.796 1279 234.05 1274.75 238.308 1269.5 238.308 1264.25 238.308 1260 234.05 1260 228.796Z" stroke="#000000" stroke-width="2.00025" stroke-miterlimit="8" fill="none" fill-rule="evenodd"/><path d="M1262.69 221.716 1210 201.261" stroke="#000000" stroke-width="2.00025" stroke-miterlimit="8" fill="none" fill-rule="evenodd"/><path d="M0 0 55.9183 31.4905" stroke="#000000" stroke-width="2.00025" stroke-miterlimit="8" fill="none" fill-rule="evenodd" transform="matrix(-1 0 0 1.0013 1262.92 235.305)"/><text font-family="Calibri,Calibri_MSFontService,sans-serif" font-weight="400" font-size="24" transform="matrix(1 0 0 1.0013 1024.21 311)">Prediction &amp; <tspan font-size="24" x="126.869" y="0">Interpretation</tspan><tspan font-size="24" x="-416.827" y="-277.64">NBFNet</tspan></text><path d="M281 184.238 309.004 184.238 309.004 192.249 281 192.249ZM305.003 176.227 329.006 188.244 305.003 200.261Z" fill="#525252"/><path d="M963 184.238 991.004 184.238 991.004 192.249 963 192.249ZM987.003 176.227 1011.01 188.244 987.003 200.261Z" fill="#525252"/></g></svg>